<svg xmlns="http://www.w3.org/2000/svg" viewBox="0 0 64 64">
  <defs>
    <linearGradient id="bg" x1="0" y1="0" x2="1" y2="1">
      <stop offset="0" stop-color="#0f172a"/>
      <stop offset="1" stop-color="#1e40af"/>
    </linearGradient>
  </defs>
  <!-- Bakgrunn -->
  <rect width="64" height="64" rx="12" fill="url(#bg)"/>

  <!-- Fugl i profil -->
  <!-- Hode -->
  <circle cx="40" cy="24" r="8" fill="#e5e7eb"/>

  <!-- Nebb -->
  <path d="M 47 24 L 53 23 L 52 25 Z" fill="#fbbf24"/>

  <!-- Øye -->
  <circle cx="42" cy="23" r="1.5" fill="#0f172a"/>

  <!-- Kropp -->
  <ellipse cx="30" cy="32" rx="12" ry="10" fill="#e5e7eb"/>

  <!-- Vinge (opp) -->
  <path d="M 30 28 Q 22 20 18 18 Q 20 22 24 26 Q 28 30 30 32 Z" fill="#cbd5e1" opacity="0.9"/>

  <!-- Hale -->
  <path d="M 18 32 Q 14 30 12 34 Q 14 36 18 34 Q 20 33 20 32 Z" fill="#cbd5e1"/>

  <!-- Ben -->
  <line x1="28" y1="42" x2="28" y2="46" stroke="#fbbf24" stroke-width="1.5" stroke-linecap="round"/>
  <line x1="32" y1="42" x2="32" y2="46" stroke="#fbbf24" stroke-width="1.5" stroke-linecap="round"/>

  <!-- Fot venstre -->
  <path d="M 26 46 L 28 46 L 30 46" stroke="#fbbf24" stroke-width="1" stroke-linecap="round" fill="none"/>
  <!-- Fot høyre -->
  <path d="M 30 46 L 32 46 L 34 46" stroke="#fbbf24" stroke-width="1" stroke-linecap="round" fill="none"/>
</svg>
